<?xml version="1.0" encoding="UTF-8" standalone="no"?>
<!DOCTYPE svg PUBLIC "-//W3C//DTD SVG 1.1//EN"
 "http://www.w3.org/Graphics/SVG/1.1/DTD/svg11.dtd">
<!-- Generated by graphviz version 13.0.0 (20250608.1624)
 -->
<!-- Pages: 1 -->
<svg width="773pt" height="836pt"
 viewBox="0.00 0.00 773.00 836.00" xmlns="http://www.w3.org/2000/svg" xmlns:xlink="http://www.w3.org/1999/xlink">
<g id="graph0" class="graph" transform="scale(1 1) rotate(0) translate(4 832)">
<polygon fill="white" stroke="none" points="-4,4 -4,-832 768.5,-832 768.5,4 -4,4"/>
<!-- &#45;1611514005504254028 -->
<g id="node1" class="node">
<title>&#45;1611514005504254028</title>
<polygon fill="none" stroke="black" points="392.12,-828 220.88,-828 220.88,-792 392.12,-792 392.12,-828"/>
<text xml:space="preserve" text-anchor="middle" x="306.5" y="-802.62" font-family="Helvetica,sans-Serif" font-size="20.00">ResetIndex(Sum)</text>
</g>
<!-- &#45;1046699964915308551 -->
<g id="node2" class="node">
<title>&#45;1046699964915308551</title>
<polygon fill="none" stroke="black" points="386.5,-756 226.5,-756 226.5,-720 386.5,-720 386.5,-756"/>
<text xml:space="preserve" text-anchor="middle" x="306.5" y="-730.62" font-family="Helvetica,sans-Serif" font-size="20.00">Sum(Projection)</text>
</g>
<!-- &#45;1046699964915308551&#45;&gt;&#45;1611514005504254028 -->
<g id="edge1" class="edge">
<title>&#45;1046699964915308551&#45;&gt;&#45;1611514005504254028</title>
<path fill="none" stroke="black" d="M306.5,-756.3C306.5,-763.59 306.5,-772.27 306.5,-780.46"/>
<polygon fill="black" stroke="black" points="303,-780.38 306.5,-790.38 310,-780.38 303,-780.38"/>
</g>
<!-- &#45;4900406462180857870 -->
<g id="node3" class="node">
<title>&#45;4900406462180857870</title>
<polygon fill="none" stroke="black" points="548.5,-684 64.5,-684 64.5,-648 548.5,-648 548.5,-684"/>
<text xml:space="preserve" text-anchor="middle" x="306.5" y="-658.62" font-family="Helvetica,sans-Serif" font-size="20.00">Projection(Assign, [&#39;playcount&#39;, &#39;user_idx&#39;, &#39;track_idx&#39;])</text>
</g>
<!-- &#45;4900406462180857870&#45;&gt;&#45;1046699964915308551 -->
<g id="edge2" class="edge">
<title>&#45;4900406462180857870&#45;&gt;&#45;1046699964915308551</title>
<path fill="none" stroke="black" d="M306.5,-684.3C306.5,-691.59 306.5,-700.27 306.5,-708.46"/>
<polygon fill="black" stroke="black" points="303,-708.38 306.5,-718.38 310,-708.38 303,-708.38"/>
</g>
<!-- 3986611852777842455 -->
<g id="node4" class="node">
<title>3986611852777842455</title>
<polygon fill="none" stroke="black" points="613,-612 0,-612 0,-576 613,-576 613,-612"/>
<text xml:space="preserve" text-anchor="middle" x="306.5" y="-586.62" font-family="Helvetica,sans-Serif" font-size="20.00">Assign(Categorize, user_idx, PropertyMap, track_idx, PropertyMap)</text>
</g>
<!-- 3986611852777842455&#45;&gt;&#45;4900406462180857870 -->
<g id="edge3" class="edge">
<title>3986611852777842455&#45;&gt;&#45;4900406462180857870</title>
<path fill="none" stroke="black" d="M306.5,-612.3C306.5,-619.59 306.5,-628.27 306.5,-636.46"/>
<polygon fill="black" stroke="black" points="303,-636.38 306.5,-646.38 310,-636.38 303,-636.38"/>
</g>
<!-- &#45;6999833302888606357 -->
<g id="node5" class="node">
<title>&#45;6999833302888606357</title>
<polygon fill="none" stroke="black" points="423.25,-540 189.75,-540 189.75,-504 423.25,-504 423.25,-540"/>
<text xml:space="preserve" text-anchor="middle" x="306.5" y="-514.62" font-family="Helvetica,sans-Serif" font-size="20.00">PropertyMap(Projection)</text>
</g>
<!-- &#45;6999833302888606357&#45;&gt;3986611852777842455 -->
<g id="edge5" class="edge">
<title>&#45;6999833302888606357&#45;&gt;3986611852777842455</title>
<path fill="none" stroke="black" d="M306.5,-540.3C306.5,-547.59 306.5,-556.27 306.5,-564.46"/>
<polygon fill="black" stroke="black" points="303,-564.38 306.5,-574.38 310,-564.38 303,-564.38"/>
</g>
<!-- 2223344477460390227 -->
<g id="node6" class="node">
<title>2223344477460390227</title>
<polygon fill="none" stroke="black" points="454.38,-468 158.62,-468 158.62,-432 454.38,-432 454.38,-468"/>
<text xml:space="preserve" text-anchor="middle" x="306.5" y="-442.62" font-family="Helvetica,sans-Serif" font-size="20.00">Projection(Categorize, track_id)</text>
</g>
<!-- 2223344477460390227&#45;&gt;&#45;6999833302888606357 -->
<g id="edge7" class="edge">
<title>2223344477460390227&#45;&gt;&#45;6999833302888606357</title>
<path fill="none" stroke="black" d="M306.5,-468.3C306.5,-475.59 306.5,-484.27 306.5,-492.46"/>
<polygon fill="black" stroke="black" points="303,-492.38 306.5,-502.38 310,-492.38 303,-492.38"/>
</g>
<!-- &#45;1712847751125755485 -->
<g id="node7" class="node">
<title>&#45;1712847751125755485</title>
<polygon fill="none" stroke="black" points="399.62,-396 213.38,-396 213.38,-360 399.62,-360 399.62,-396"/>
<text xml:space="preserve" text-anchor="middle" x="306.5" y="-370.62" font-family="Helvetica,sans-Serif" font-size="20.00">Categorize(Assign)</text>
</g>
<!-- &#45;1712847751125755485&#45;&gt;3986611852777842455 -->
<g id="edge4" class="edge">
<title>&#45;1712847751125755485&#45;&gt;3986611852777842455</title>
<path fill="none" stroke="black" d="M213.12,-390.42C188.49,-398.17 164.6,-410.97 149.5,-432 126.98,-463.37 179.12,-538.63 180.5,-540 194.02,-553.41 211.45,-563.62 229,-571.32"/>
<polygon fill="black" stroke="black" points="227.35,-574.42 237.92,-574.99 230.01,-567.95 227.35,-574.42"/>
</g>
<!-- &#45;1712847751125755485&#45;&gt;2223344477460390227 -->
<g id="edge8" class="edge">
<title>&#45;1712847751125755485&#45;&gt;2223344477460390227</title>
<path fill="none" stroke="black" d="M306.5,-396.3C306.5,-403.59 306.5,-412.27 306.5,-420.46"/>
<polygon fill="black" stroke="black" points="303,-420.38 306.5,-430.38 310,-420.38 303,-420.38"/>
</g>
<!-- &#45;4842436841646901652 -->
<g id="node14" class="node">
<title>&#45;4842436841646901652</title>
<polygon fill="none" stroke="black" points="764.5,-468 472.5,-468 472.5,-432 764.5,-432 764.5,-468"/>
<text xml:space="preserve" text-anchor="middle" x="618.5" y="-442.62" font-family="Helvetica,sans-Serif" font-size="20.00">Projection(Categorize, user_id)</text>
</g>
<!-- &#45;1712847751125755485&#45;&gt;&#45;4842436841646901652 -->
<g id="edge16" class="edge">
<title>&#45;1712847751125755485&#45;&gt;&#45;4842436841646901652</title>
<path fill="none" stroke="black" d="M384.43,-396.48C428.53,-406.38 483.85,-418.79 529.64,-429.06"/>
<polygon fill="black" stroke="black" points="528.76,-432.45 539.28,-431.23 530.29,-425.62 528.76,-432.45"/>
</g>
<!-- 1163255851276501506 -->
<g id="node8" class="node">
<title>1163255851276501506</title>
<polygon fill="none" stroke="black" points="540.62,-324 72.38,-324 72.38,-288 540.62,-288 540.62,-324"/>
<text xml:space="preserve" text-anchor="middle" x="306.5" y="-298.62" font-family="Helvetica,sans-Serif" font-size="20.00">Assign(ArrowStringConversion, playcount, AsType)</text>
</g>
<!-- 1163255851276501506&#45;&gt;&#45;1712847751125755485 -->
<g id="edge9" class="edge">
<title>1163255851276501506&#45;&gt;&#45;1712847751125755485</title>
<path fill="none" stroke="black" d="M306.5,-324.3C306.5,-331.59 306.5,-340.27 306.5,-348.46"/>
<polygon fill="black" stroke="black" points="303,-348.38 306.5,-358.38 310,-348.38 303,-348.38"/>
</g>
<!-- 9158510302087526996 -->
<g id="node9" class="node">
<title>9158510302087526996</title>
<polygon fill="none" stroke="black" points="519.25,-252 333.75,-252 333.75,-216 519.25,-216 519.25,-252"/>
<text xml:space="preserve" text-anchor="middle" x="426.5" y="-226.62" font-family="Helvetica,sans-Serif" font-size="20.00">AsType(Projection)</text>
</g>
<!-- 9158510302087526996&#45;&gt;1163255851276501506 -->
<g id="edge11" class="edge">
<title>9158510302087526996&#45;&gt;1163255851276501506</title>
<path fill="none" stroke="black" d="M396.53,-252.48C381.24,-261.4 362.44,-272.37 345.98,-281.97"/>
<polygon fill="black" stroke="black" points="344.27,-278.91 337.4,-286.98 347.8,-284.96 344.27,-278.91"/>
</g>
<!-- &#45;3867508987502514128 -->
<g id="node10" class="node">
<title>&#45;3867508987502514128</title>
<polygon fill="none" stroke="black" points="696,-180 275,-180 275,-144 696,-144 696,-180"/>
<text xml:space="preserve" text-anchor="middle" x="485.5" y="-154.62" font-family="Helvetica,sans-Serif" font-size="20.00">Projection(ArrowStringConversion, playcount)</text>
</g>
<!-- &#45;3867508987502514128&#45;&gt;9158510302087526996 -->
<g id="edge12" class="edge">
<title>&#45;3867508987502514128&#45;&gt;9158510302087526996</title>
<path fill="none" stroke="black" d="M470.92,-180.3C464.06,-188.44 455.74,-198.31 448.16,-207.3"/>
<polygon fill="black" stroke="black" points="445.66,-204.84 441.89,-214.74 451.01,-209.35 445.66,-204.84"/>
</g>
<!-- 201358157647699786 -->
<g id="node11" class="node">
<title>201358157647699786</title>
<polygon fill="none" stroke="black" points="576.38,-108 154.62,-108 154.62,-72 576.38,-72 576.38,-108"/>
<text xml:space="preserve" text-anchor="middle" x="365.5" y="-82.62" font-family="Helvetica,sans-Serif" font-size="20.00">ArrowStringConversion(FromMapProjectable)</text>
</g>
<!-- 201358157647699786&#45;&gt;1163255851276501506 -->
<g id="edge10" class="edge">
<title>201358157647699786&#45;&gt;1163255851276501506</title>
<path fill="none" stroke="black" d="M308.28,-108.42C291.55,-116.46 275.18,-127.92 265.5,-144 239.89,-186.55 267.28,-244.7 287.96,-278.21"/>
<polygon fill="black" stroke="black" points="284.93,-279.98 293.28,-286.5 290.82,-276.2 284.93,-279.98"/>
</g>
<!-- 201358157647699786&#45;&gt;&#45;3867508987502514128 -->
<g id="edge13" class="edge">
<title>201358157647699786&#45;&gt;&#45;3867508987502514128</title>
<path fill="none" stroke="black" d="M395.47,-108.48C410.76,-117.4 429.56,-128.37 446.02,-137.97"/>
<polygon fill="black" stroke="black" points="444.2,-140.96 454.6,-142.98 447.73,-134.91 444.2,-140.96"/>
</g>
<!-- &#45;2943123187760555371 -->
<g id="node12" class="node">
<title>&#45;2943123187760555371</title>
<polygon fill="none" stroke="black" points="466.5,-36 264.5,-36 264.5,0 466.5,0 466.5,-36"/>
<text xml:space="preserve" text-anchor="middle" x="365.5" y="-10.62" font-family="Helvetica,sans-Serif" font-size="20.00">FromMapProjectable</text>
</g>
<!-- &#45;2943123187760555371&#45;&gt;201358157647699786 -->
<g id="edge14" class="edge">
<title>&#45;2943123187760555371&#45;&gt;201358157647699786</title>
<path fill="none" stroke="black" d="M365.5,-36.3C365.5,-43.59 365.5,-52.27 365.5,-60.46"/>
<polygon fill="black" stroke="black" points="362,-60.38 365.5,-70.38 369,-60.38 362,-60.38"/>
</g>
<!-- &#45;7299820405669561890 -->
<g id="node13" class="node">
<title>&#45;7299820405669561890</title>
<polygon fill="none" stroke="black" points="705.25,-540 471.75,-540 471.75,-504 705.25,-504 705.25,-540"/>
<text xml:space="preserve" text-anchor="middle" x="588.5" y="-514.62" font-family="Helvetica,sans-Serif" font-size="20.00">PropertyMap(Projection)</text>
</g>
<!-- &#45;7299820405669561890&#45;&gt;3986611852777842455 -->
<g id="edge6" class="edge">
<title>&#45;7299820405669561890&#45;&gt;3986611852777842455</title>
<path fill="none" stroke="black" d="M518.07,-540.48C478.47,-550.31 428.86,-562.63 387.64,-572.86"/>
<polygon fill="black" stroke="black" points="386.85,-569.45 377.99,-575.25 388.54,-576.24 386.85,-569.45"/>
</g>
<!-- &#45;4842436841646901652&#45;&gt;&#45;7299820405669561890 -->
<g id="edge15" class="edge">
<title>&#45;4842436841646901652&#45;&gt;&#45;7299820405669561890</title>
<path fill="none" stroke="black" d="M611.08,-468.3C607.85,-475.85 603.98,-484.88 600.36,-493.32"/>
<polygon fill="black" stroke="black" points="597.15,-491.93 596.43,-502.5 603.58,-494.69 597.15,-491.93"/>
</g>
</g>
</svg>
